<svg xmlns="http://www.w3.org/2000/svg" viewBox="0 0 64 64" width="64" height="64">
  <path d="M 32 12 
           C 32 12, 28 6, 20 6 
           C 10 6, 4 14, 4 24 
           C 4 40, 20 52, 29 58 
           Q 32 62, 35 58 
           C 44 52, 60 40, 60 24 
           C 60 14, 54 6, 44 6 
           C 36 6, 32 12, 32 12 Z" 
        fill="#ff4757"/>

  <polyline points="14 28, 20 28, 24 18, 30 38, 36 22, 40 28, 48 28" 
            fill="none" 
            stroke="#ffffff" 
            stroke-width="3" 
            stroke-linecap="round" 
            stroke-linejoin="round"/>

  <circle cx="48" cy="28" r="2.5" fill="#ffffff" />
</svg>